<svg width="1280" height="720" xmlns="http://www.w3.org/2000/svg" xmlns:xlink="http://www.w3.org/1999/xlink" overflow="hidden"><defs><filter id="fx0" x="-10%" y="-10%" width="120%" height="120%" filterUnits="userSpaceOnUse" primitiveUnits="userSpaceOnUse"><feComponentTransfer color-interpolation-filters="sRGB"><feFuncR type="discrete" tableValues="0 0"/><feFuncG type="discrete" tableValues="0 0"/><feFuncB type="discrete" tableValues="0 0"/><feFuncA type="linear" slope="0.4" intercept="0"/></feComponentTransfer><feGaussianBlur stdDeviation="4.46368 4.49931"/></filter><filter id="fx1" x="-10%" y="-10%" width="120%" height="120%" filterUnits="userSpaceOnUse" primitiveUnits="userSpaceOnUse"><feComponentTransfer color-interpolation-filters="sRGB"><feFuncR type="discrete" tableValues="0 0"/><feFuncG type="discrete" tableValues="0 0"/><feFuncB type="discrete" tableValues="0 0"/><feFuncA type="linear" slope="0.4" intercept="0"/></feComponentTransfer><feGaussianBlur stdDeviation="4.46368 4.4616"/></filter><filter id="fx2" x="-10%" y="-10%" width="120%" height="120%" filterUnits="userSpaceOnUse" primitiveUnits="userSpaceOnUse"><feComponentTransfer color-interpolation-filters="sRGB"><feFuncR type="discrete" tableValues="0 0"/><feFuncG type="discrete" tableValues="0 0"/><feFuncB type="discrete" tableValues="0 0"/><feFuncA type="linear" slope="0.4" intercept="0"/></feComponentTransfer><feGaussianBlur stdDeviation="4.44856 4.49931"/></filter><filter id="fx3" x="-10%" y="-10%" width="120%" height="120%" filterUnits="userSpaceOnUse" primitiveUnits="userSpaceOnUse"><feComponentTransfer color-interpolation-filters="sRGB"><feFuncR type="discrete" tableValues="0 0"/><feFuncG type="discrete" tableValues="0 0"/><feFuncB type="discrete" tableValues="0 0"/><feFuncA type="linear" slope="0.4" intercept="0"/></feComponentTransfer><feGaussianBlur stdDeviation="4.44444 4.45593"/></filter><filter id="fx4" x="-10%" y="-10%" width="120%" height="120%" filterUnits="userSpaceOnUse" primitiveUnits="userSpaceOnUse"><feComponentTransfer color-interpolation-filters="sRGB"><feFuncR type="discrete" tableValues="0 0"/><feFuncG type="discrete" tableValues="0 0"/><feFuncB type="discrete" tableValues="0 0"/><feFuncA type="linear" slope="0.4" intercept="0"/></feComponentTransfer><feGaussianBlur stdDeviation="4.44444 4.49931"/></filter><filter id="fx5" x="-10%" y="-10%" width="120%" height="120%" filterUnits="userSpaceOnUse" primitiveUnits="userSpaceOnUse"><feComponentTransfer color-interpolation-filters="sRGB"><feFuncR type="discrete" tableValues="0 0"/><feFuncG type="discrete" tableValues="0 0"/><feFuncB type="discrete" tableValues="0 0"/><feFuncA type="linear" slope="0.4" intercept="0"/></feComponentTransfer><feGaussianBlur stdDeviation="4.46368 4.45593"/></filter><filter id="fx6" x="-10%" y="-10%" width="120%" height="120%" filterUnits="userSpaceOnUse" primitiveUnits="userSpaceOnUse"><feComponentTransfer color-interpolation-filters="sRGB"><feFuncR type="discrete" tableValues="0 0"/><feFuncG type="discrete" tableValues="0 0"/><feFuncB type="discrete" tableValues="0 0"/><feFuncA type="linear" slope="0.4" intercept="0"/></feComponentTransfer><feGaussianBlur stdDeviation="4.44444 4.49931"/></filter><filter id="fx7" x="-10%" y="-10%" width="120%" height="120%" filterUnits="userSpaceOnUse" primitiveUnits="userSpaceOnUse"><feComponentTransfer color-interpolation-filters="sRGB"><feFuncR type="discrete" tableValues="0 0"/><feFuncG type="discrete" tableValues="0 0"/><feFuncB type="discrete" tableValues="0 0"/><feFuncA type="linear" slope="0.4" intercept="0"/></feComponentTransfer><feGaussianBlur stdDeviation="4.44444 4.4616"/></filter><clipPath id="clip8"><rect x="0" y="0" width="1280" height="720"/></clipPath><linearGradient x1="640" y1="49" x2="640" y2="252" gradientUnits="userSpaceOnUse" spreadMethod="reflect" id="fill9"><stop offset="0" stop-color="#163E8C"/><stop offset="0.33" stop-color="#163E8C"/><stop offset="1" stop-color="#0E2656"/></linearGradient><radialGradient cx="6.096e+06" cy="9525" r="6.09601e+06" fx="6.096e+06" gradientUnits="userSpaceOnUse" spreadMethod="pad" id="fill10" gradientTransform="matrix(0.000104987 0 0 0.000104987 0 49)"><stop offset="0" stop-color="#E9F1F2"/><stop offset="0.38" stop-color="#FFFFFF" stop-opacity="0.380392"/><stop offset="1" stop-color="#FFFFFF" stop-opacity="0.380392"/></radialGradient><clipPath id="clip11"><rect x="13" y="4" width="51" height="41"/></clipPath><clipPath id="clip12"><rect x="13" y="4" width="51" height="41"/></clipPath><clipPath id="clip13"><rect x="13" y="0" width="51" height="51"/></clipPath><clipPath id="clip14"><rect x="-2.51082" y="-2.53086" width="121.022" height="48.0864"/></clipPath><clipPath id="clip15"><rect x="0" y="0" width="116" height="41"/></clipPath><clipPath id="clip16"><rect x="-2.51082" y="-2.50965" width="120.017" height="135.019"/></clipPath><clipPath id="clip17"><rect x="0" y="0" width="116" height="130"/></clipPath><clipPath id="clip18"><path d="M241.5 313.5C234.873 313.5 229.5 318.873 229.5 325.501L229.5 337.5 1253.5 337.5 1253.5 325.501C1253.5 318.873 1248.13 313.5 1241.5 313.5ZM1.90735e-05 1.07288e-05 1280 1.07288e-05 1280 720 1.90735e-05 720Z" fill-rule="evenodd" clip-rule="evenodd"/></clipPath><clipPath id="clip19"><rect x="-2.50232" y="-2.53087" width="547.006" height="48.0864"/></clipPath><clipPath id="clip20"><rect x="0" y="0" width="541" height="41"/></clipPath><clipPath id="clip21"><rect x="-2.5" y="-2.50645" width="546" height="199.013"/></clipPath><clipPath id="clip22"><rect x="0" y="0" width="540" height="194"/></clipPath><clipPath id="clip23"><path d="M39.5001 313.5C32.8727 313.5 27.5001 318.873 27.5001 325.5L27.5001 337.5 202.5 337.5 202.5 325.5C202.5 318.873 197.128 313.5 190.5 313.5ZM1.90735e-05 1.07288e-05 1280 1.07288e-05 1280 720 1.90735e-05 720Z" fill-rule="evenodd" clip-rule="evenodd"/></clipPath><clipPath id="clip24"><rect x="-2.5" y="-2.53087" width="123" height="48.0864"/></clipPath><clipPath id="clip25"><rect x="0" y="0" width="116" height="41"/></clipPath><clipPath id="clip26"><rect x="-2.51082" y="-2.50647" width="120.017" height="199.013"/></clipPath><clipPath id="clip27"><rect x="0" y="0" width="116" height="194"/></clipPath><clipPath id="clip28"><rect x="-2.5" y="-2.53086" width="547" height="48.0864"/></clipPath><clipPath id="clip29"><rect x="0" y="0" width="540" height="41"/></clipPath><clipPath id="clip30"><rect x="-2.5" y="-2.50965" width="546" height="135.019"/></clipPath><clipPath id="clip31"><rect x="0" y="0" width="540" height="130"/></clipPath></defs><g clip-path="url(#clip8)"><rect x="0" y="0" width="1280" height="720" fill="#FFFFFF"/><rect x="0" y="0" width="1280" height="720" fill="#E9F1F2"/><rect x="0" y="0" width="1280" height="49" fill="#102D66"/><rect x="0" y="49" width="1280" height="203" fill="url(#fill9)"/><rect x="0" y="49" width="1280" height="2" fill="url(#fill10)"/><text fill="#FFFFFF" font-family="Segoe UI,Segoe UI_MSFontService,sans-serif" font-weight="700" font-size="24" transform="translate(77.0877 34)">DASHBOARD FINANCEIRO</text><g clip-path="url(#clip11)"><g clip-path="url(#clip12)"><g clip-path="url(#clip13)"><path d="M45.408 37.488 43.824 39.072 7.392 39.072 5.28 36.96 5.28 26.4 7.392 24.288 43.824 24.288 45.408 25.872 45.408 37.488ZM2.112 21.12 2.112 42.24 48.576 42.24 48.576 21.12 2.112 21.12Z" fill="#FFFFFF" transform="matrix(1.00616 0 0 1 13 0.0661046)"/><path d="M29.568 31.68C29.568 34.5961 27.6768 36.96 25.344 36.96 23.0111 36.96 21.12 34.5961 21.12 31.68 21.12 28.7639 23.0111 26.4 25.344 26.4 27.6768 26.4 29.568 28.7639 29.568 31.68Z" fill="#FFFFFF" transform="matrix(1.00616 0 0 1 13 0.0661046)"/><path d="M13.728 31.68C13.728 32.5548 13.0188 33.264 12.144 33.264 11.2692 33.264 10.56 32.5548 10.56 31.68 10.56 30.8052 11.2692 30.096 12.144 30.096 13.0188 30.096 13.728 30.8052 13.728 31.68Z" fill="#FFFFFF" transform="matrix(1.00616 0 0 1 13 0.0661046)"/><path d="M40.128 31.68C40.128 32.5548 39.4188 33.264 38.544 33.264 37.6692 33.264 36.96 32.5548 36.96 31.68 36.96 30.8052 37.6692 30.096 38.544 30.096 39.4188 30.096 40.128 30.8052 40.128 31.68Z" fill="#FFFFFF" transform="matrix(1.00616 0 0 1 13 0.0661046)"/><path d="M34.7952 10.9296 35.5872 12.936 38.7552 12.3024 36.5376 6.7584 8.1312 18.3744 24.3936 15.1536Z" fill="#FFFFFF" transform="matrix(1.00616 0 0 1 13 0.0661046)"/><path d="M32.0496 19.008 40.392 17.3712 40.7616 19.008 43.9824 19.008 42.9264 13.6224 15.84 19.008Z" fill="#FFFFFF" transform="matrix(1.00616 0 0 1 13 0.0661046)"/></g></g></g><rect x="0" y="684" width="1280" height="36" fill="#FFFFFF"/><g clip-path="url(#clip14)" filter="url(#fx0)" transform="matrix(1.99138 0 0 1.97561 -1 38)"><g clip-path="url(#clip15)"><path d="M20.3376 14.1728 95.6624 14.1728C99.1291 14.1728 101.939 17.0056 101.939 20.5L101.939 26.8272 14.0606 26.8272 14.0606 20.5C14.0606 17.0056 16.8709 14.1728 20.3376 14.1728Z" fill="#ADB9CA" fill-rule="evenodd"/></g></g><path d="M39.4999 66 189.5 66C196.404 66 202 71.5964 202 78.5L202 91 27 91 27 78.5C27 71.5964 32.5964 66 39.4999 66Z" fill="#ADB9CA" fill-rule="evenodd"/><g clip-path="url(#clip16)" filter="url(#fx1)" transform="matrix(1.99138 0 0 1.99231 -1 63)"><g clip-path="url(#clip17)" transform="matrix(1 0 0 1 0 3.55271e-15)"><path d="M96.1412 115.946 19.8588 115.946C16.6565 115.946 14.0606 113.351 14.0606 110.15L14.0606 14.0541 101.939 14.0541 101.939 110.15C101.939 113.351 99.3435 115.946 96.1412 115.946Z" fill="#FFFFFF" fill-rule="evenodd"/></g></g><path d="M190.454 294 38.5464 294C32.1695 294 27 288.831 27 282.454L27 91 202 91 202 282.454C202 288.831 196.83 294 190.454 294Z" fill="#FFFFFF" fill-rule="evenodd"/><g clip-path="url(#clip18)"><g clip-path="url(#clip19)" filter="url(#fx2)" transform="matrix(1.99815 0 0 1.97561 201 285)"><g clip-path="url(#clip20)" transform="translate(1.42109e-14 0)"><path d="M20.269 14.426 520.732 14.426C524.049 14.426 526.737 17.1455 526.737 20.5003L526.737 26.5741 14.2632 26.5741 14.2632 20.5003C14.2632 17.1455 16.9521 14.426 20.269 14.426Z" stroke="#98A4B2" stroke-miterlimit="8" fill="#949FAD" fill-rule="evenodd"/></g></g></g><path d="M241.5 313.5 1241.5 313.5C1248.13 313.5 1253.5 318.873 1253.5 325.501L1253.5 337.5 229.5 337.5 229.5 325.501C229.5 318.873 234.873 313.5 241.5 313.5Z" stroke="#98A4B2" stroke-width="1.33333" stroke-miterlimit="8" fill="#949FAD" fill-rule="evenodd"/><g clip-path="url(#clip21)" filter="url(#fx3)" transform="matrix(2 0 0 1.99485 201 309)"><g clip-path="url(#clip22)" transform="matrix(1 0 0 1 0 2.84217e-14)"><path d="M520.428 179.964 19.5724 179.964C16.4949 179.964 14 177.463 14 174.377L14 14.0362 526 14.0362 526 174.377C526 177.463 523.505 179.964 520.428 179.964Z" fill="#FFFFFF" fill-rule="evenodd"/></g></g><path d="M1241.86 668 240.145 668C233.99 668 229 663.01 229 656.855L229 337 1253 337 1253 656.855C1253 663.01 1248.01 668 1241.86 668Z" fill="#FFFFFF" fill-rule="evenodd"/><g clip-path="url(#clip23)"><g clip-path="url(#clip24)" filter="url(#fx4)" transform="matrix(2 0 0 1.97561 -1 285)"><g clip-path="url(#clip25)"><path d="M20.2501 14.426 95.7501 14.426C99.0638 14.426 101.75 17.1454 101.75 20.5001L101.75 26.5741 14.25 26.5741 14.25 20.5001C14.25 17.1454 16.9363 14.426 20.2501 14.426Z" stroke="#98A4B2" stroke-miterlimit="8" fill="#A4B0C0" fill-rule="evenodd"/></g></g></g><path d="M39.5001 313.5 190.5 313.5C197.128 313.5 202.5 318.873 202.5 325.5L202.5 337.5 27.5001 337.5 27.5001 325.5C27.5001 318.873 32.8727 313.5 39.5001 313.5Z" stroke="#98A4B2" stroke-width="1.33333" stroke-miterlimit="8" fill="#A4B0C0" fill-rule="evenodd"/><g clip-path="url(#clip26)" filter="url(#fx5)" transform="matrix(1.99138 0 0 1.99485 -1 309)"><g clip-path="url(#clip27)" transform="matrix(1 0 0 1 0 2.84217e-14)"><path d="M96.0155 179.964 19.9845 179.964C16.7128 179.964 14.0606 177.316 14.0606 174.05L14.0606 14.0362 101.939 14.0362 101.939 174.05C101.939 177.316 99.2872 179.964 96.0155 179.964Z" fill="#FFFFFF" fill-rule="evenodd"/></g></g><path d="M190.203 668 38.7968 668C32.2816 668 27 662.718 27 656.203L27 337 202 337 202 656.203C202 662.718 196.718 668 190.203 668Z" fill="#FFFFFF" fill-rule="evenodd"/><g clip-path="url(#clip28)" filter="url(#fx6)" transform="matrix(2 0 0 1.97561 201 38)"><g clip-path="url(#clip29)"><path d="M20.2499 14.1728 519.75 14.1728C523.202 14.1728 526 17.0056 526 20.5L526 26.8272 14 26.8272 14 20.5C14 17.0056 16.7982 14.1728 20.2499 14.1728Z" fill="#9FAABA" fill-rule="evenodd"/></g></g><path d="M241.5 66 1240.5 66C1247.4 66 1253 71.5964 1253 78.5L1253 91 229 91 229 78.5C229 71.5964 234.596 66 241.5 66Z" fill="#9FAABA" fill-rule="evenodd"/><g clip-path="url(#clip30)" filter="url(#fx7)" transform="matrix(2 0 0 1.99231 201 63)"><g clip-path="url(#clip31)" transform="matrix(1 0 0 1 0 3.55271e-15)"><path d="M520.728 115.946 19.2718 115.946C16.3603 115.946 14 113.577 14 110.654L14 14.0541 526 14.0541 526 110.654C526 113.577 523.64 115.946 520.728 115.946Z" fill="#FFFFFF" fill-rule="evenodd"/></g></g><path d="M1242.46 294 239.544 294C233.721 294 229 289.28 229 283.456L229 91 1253 91 1253 283.456C1253 289.28 1248.28 294 1242.46 294Z" fill="#FFFFFF" fill-rule="evenodd"/><text font-family="Freestyle Script,Freestyle Script_MSFontService,sans-serif" font-weight="400" font-size="24" transform="translate(516.14 707)">José Henrique Hasenfratz Brandão</text></g></svg>